<?xml version="1.0" encoding="UTF-8" standalone="no"?>
<svg
   xmlns:dc="http://purl.org/dc/elements/1.1/"
   xmlns:cc="http://creativecommons.org/ns#"
   xmlns:rdf="http://www.w3.org/1999/02/22-rdf-syntax-ns#"
   xmlns:svg="http://www.w3.org/2000/svg"
   xmlns="http://www.w3.org/2000/svg"
   xmlns:sodipodi="http://sodipodi.sourceforge.net/DTD/sodipodi-0.dtd"
   xmlns:inkscape="http://www.inkscape.org/namespaces/inkscape"
   version="1.1"
   id="svg2"
   xml:space="preserve"
   width="42.666668"
   height="42.666668"
   viewBox="0 0 42.666668 42.666668"
   sodipodi:docname="Logo_pingpong.ai"><metadata
     id="metadata8"><rdf:RDF><cc:Work
         rdf:about=""><dc:format>image/svg+xml</dc:format><dc:type
           rdf:resource="http://purl.org/dc/dcmitype/StillImage" /></cc:Work></rdf:RDF></metadata><defs
     id="defs6"><clipPath
       clipPathUnits="userSpaceOnUse"
       id="clipPath22"><path
         d="M 0,32 H 32 V 0 H 0 Z"
         id="path20" /></clipPath></defs><sodipodi:namedview
     pagecolor="#ffffff"
     bordercolor="#666666"
     borderopacity="1"
     objecttolerance="10"
     gridtolerance="10"
     guidetolerance="10"
     inkscape:pageopacity="0"
     inkscape:pageshadow="2"
     inkscape:window-width="640"
     inkscape:window-height="480"
     id="namedview4" /><g
     id="g10"
     inkscape:groupmode="layer"
     inkscape:label="Logo_pingpong"
     transform="matrix(1.3333333,0,0,-1.3333333,0,42.666667)"><path
       d="M 0,0 H 16 V 32 H 0 Z"
       style="fill:#e52320;fill-opacity:1;fill-rule:nonzero;stroke:none"
       id="path12" /><path
       d="M 16,0 H 32 V 32 H 16 Z"
       style="fill:#583189;fill-opacity:1;fill-rule:nonzero;stroke:none"
       id="path14" /><g
       id="g16"><g
         id="g18"
         clip-path="url(#clipPath22)"><g
           id="g24"
           transform="translate(14.2852,11.2363)"><path
             d="m 0,0 c -0.326,0.235 -0.651,0.47 -0.977,0.705 -0.591,0.328 -1.091,0.54 -1.446,0.674 -0.211,0.08 -0.5,0.181 -0.965,0.372 C -3.919,1.97 -4.13,2.076 -4.346,2.245 -4.587,2.434 -4.75,2.632 -4.853,2.774 -3.235,2.683 -1.618,2.591 0,2.499 Z"
             style="fill:#c5c4c5;fill-opacity:1;fill-rule:nonzero;stroke:none"
             id="path26" /></g><g
           id="g28"
           transform="translate(18.7979,12.1807)"><path
             d="m 0,0 c -0.526,-0.327 -0.898,-0.687 -1.134,-0.944 v 2.499 c 1.4,0.03 2.799,0.061 4.198,0.091 C 3.011,1.57 2.924,1.455 2.798,1.332 2.314,0.859 1.854,0.854 0.937,0.469 0.676,0.358 0.362,0.225 0,0"
             style="fill:#c5c4c5;fill-opacity:1;fill-rule:nonzero;stroke:none"
             id="path30" /></g><g
           id="g32"
           transform="translate(22.1211,14.0107)"><path
             d="m 0,0 c -0.044,-0.04 -0.097,-0.103 -0.191,-0.161 -0.477,-0.291 -1.488,-0.212 -6.059,-0.268 -4.179,-0.05 -5.354,-0.155 -6.072,0.19 -0.043,0.019 -0.081,0.04 -0.117,0.061 0,0 -0.133,0.077 -0.249,0.178 -0.126,0.108 -4.285,6.102 -0.385,10.988 0.389,0.488 3.009,3.77 7.331,3.641 4.675,-0.139 7.064,-4.14 7.335,-4.611 C 4.009,5.807 1.408,1.27 0,0"
             style="fill:#f5f5f5;fill-opacity:1;fill-rule:nonzero;stroke:none"
             id="path34" /></g><path
           d="M 17.664,13.735 H 14.285 V 4.134 h 3.379 z"
           style="fill:#f5f5f5;fill-opacity:1;fill-rule:nonzero;stroke:none"
           id="path36" /></g></g></g></svg>
